<svg xmlns="http://www.w3.org/2000/svg" width="302" height="302" fill="none" opacity=".2" xmlns:v="https://vecta.io/nano"><path d="M36.002 494.76c126.341 0 228.76-102.419 228.76-228.76S162.343 37.24 36.002 37.24-192.758 139.66-192.758 266s102.42 228.76 228.76 228.76z" stroke="#4a4a4a" stroke-width="31.92"/><g fill="#4a4a4a"><path d="M245.584 304.327c5.826.767 11.171-3.335 11.938-9.161a10.64 10.64 0 1 0-21.098-2.777c-.767 5.826 3.334 11.171 9.16 11.938zM18.772 53.631c-.767-5.826-6.112-9.927-11.938-9.16s-9.927 6.112-9.16 11.938 6.112 9.927 11.938 9.16 9.927-6.112 9.16-11.938zm55.559 2.777c.767-5.826-3.334-11.171-9.16-11.938S54 47.805 53.233 53.631s3.334 11.171 9.16 11.938 11.171-3.334 11.938-9.16zm52.94 17.062a10.64 10.64 0 0 0-5.758-13.902c-5.429-2.249-11.653.329-13.902 5.758a10.64 10.64 0 0 0 5.758 13.902c5.429 2.249 11.653-.329 13.902-5.758zm46.714 30.182c3.577-4.662 2.698-11.341-1.964-14.919s-11.342-2.698-14.919 1.964-2.698 11.342 1.964 14.919 11.342 2.698 14.919-1.964zm37.317 41.244c4.662-3.578 5.541-10.257 1.964-14.919a10.64 10.64 0 0 0-14.918-1.964c-4.662 3.577-5.542 10.257-1.965 14.919s10.257 5.541 14.919 1.964zm25.359 49.501c5.429-2.249 8.007-8.473 5.758-13.902a10.64 10.64 0 0 0-13.901-5.758c-5.429 2.249-8.008 8.473-5.759 13.902s8.473 8.007 13.902 5.758zm11.712 54.375c5.826-.767 9.928-6.112 9.161-11.938s-6.112-9.927-11.938-9.16a10.64 10.64 0 1 0 2.777 21.098zm-212.386-4.051l-7.418-63.517L35.987 42.56l7.418 138.644-7.418 63.517zm5.507.724l9.274-63.272 43.05-131.999L65.1 186.014l-23.606 59.431zm5.133 2.127l25.334-58.717 75.746-116.359L84.81 196.274l-38.183 51.298zm4.407 3.381l39.667-50.159 103.282-92.789-92.791 103.281-50.158 39.667zm3.381 4.408l51.298-38.183 123.778-62.897-116.359 75.746-58.717 25.334zm2.127 5.132l59.431-23.606 135.841-28.717-132 43.049-63.272 9.274zm.725 5.508l63.516-7.419 138.644 7.419-138.644 7.418-63.516-7.418zm-.725 5.507l63.272 9.274 132 43.049-135.841-28.717-59.431-23.606zm-2.127 5.133l58.717 25.333 116.359 75.747-123.778-62.898-51.298-38.182zm-3.381 4.407l50.159 39.667 92.789 103.282-103.281-92.791-39.667-50.158zm-4.407 3.381l38.183 51.298 62.897 123.778-75.746-116.359-25.334-58.717zm-5.133 2.127L65.1 345.987l28.717 135.841-43.05-132-9.274-63.272zm-5.507.725l7.418 63.516-7.418 138.643-7.418-138.643 7.418-63.516zm-5.507-.725l-9.274 63.272-43.049 132L6.874 345.987l23.606-59.431zm-5.133-2.127L.013 343.146-75.733 459.505l62.897-123.778 38.183-51.298zm-4.407-3.381l-39.667 50.159-103.283 92.789 92.792-103.281 50.158-39.667zm-3.381-4.407l-51.298 38.182-123.778 62.898 116.358-75.747 58.717-25.333zm-2.127-5.133l-59.431 23.606-135.841 28.717 132-43.049 63.272-9.274zm-.725-5.507l-63.516 7.418-138.643-7.418 138.643-7.419 63.517 7.419zm.725-5.508l-63.272-9.274-132-43.049 135.841 28.717 59.431 23.606zm2.127-5.132l-58.717-25.334-116.358-75.746 123.778 62.897 51.298 38.183zm3.381-4.408l-50.159-39.667-92.79-103.282 103.282 92.791 39.667 50.158zm4.407-3.381l-38.183-51.298-62.897-123.778L.013 188.855l25.334 58.717zm5.133-2.127L6.874 186.014-21.844 50.174l43.049 132 9.274 63.272z"/><path d="M35.998 308.559c23.505 0 42.56-19.054 42.56-42.56s-19.055-42.56-42.56-42.56-42.56 19.055-42.56 42.56 19.055 42.56 42.56 42.56z"/></g></svg>