<svg width="333" height="333" viewBox="0 0 333 333" fill="none" xmlns="http://www.w3.org/2000/svg">
<circle cx="166.5" cy="166.5" r="162" fill="white" stroke="#7D221C" stroke-width="9"/>
<path d="M167.5 58C160.606 58 153.779 59.358 147.409 61.9963C141.04 64.6347 135.252 68.5018 130.377 73.3769C125.502 78.252 121.635 84.0395 118.996 90.4091C116.358 96.7787 115 103.606 115 110.5C115 117.394 116.358 124.221 118.996 130.591C121.635 136.96 125.502 142.748 130.377 147.623C135.252 152.498 141.04 156.365 147.409 159.004C153.779 161.642 160.606 163 167.5 163L167.5 110.5L167.5 58Z" fill="#7D221C"/>
<path d="M167.5 58C174.394 58 181.221 59.3579 187.591 61.9963C193.96 64.6347 199.748 68.5018 204.623 73.3769C209.498 78.252 213.365 84.0395 216.004 90.4091C218.642 96.7787 220 103.606 220 110.5C220 117.394 218.642 124.221 216.004 130.591C213.365 136.96 209.498 142.748 204.623 147.623C199.748 152.498 193.96 156.365 187.591 159.004C181.221 161.642 174.394 163 167.5 163L167.5 110.5L167.5 58Z" fill="#963630"/>
<path fill-rule="evenodd" clip-rule="evenodd" d="M113.5 177.001C83.9528 177.001 60 200.954 60 230.501V293.001C89.4623 322.601 143.609 332.001 167 333.001V177.001H113.5Z" fill="#7D221C"/>
<path fill-rule="evenodd" clip-rule="evenodd" d="M220.5 177.001C250.047 177.001 274 200.954 274 230.501V293.001C244.538 322.601 190.391 332.001 167 333.001V177.001H220.5Z" fill="#963630"/>
</svg>
