<svg xmlns="http://www.w3.org/2000/svg" width="46" height="37" fill="none" xmlns:v="https://vecta.io/nano"><path fill-rule="evenodd" d="M11.754.5h-.149C9.612.5 7.893.5 6.516.685c-1.474.198-2.889.646-4.034 1.793S.886 5.038.688 6.512C.504 7.889.504 9.608.504 11.602v13.797l.185 5.09c.198 1.474.646 2.889 1.793 4.034s2.561 1.595 4.034 1.793c1.377.184 3.096.184 5.089.184h22.797l5.09-.184c1.474-.198 2.889-.646 4.034-1.793s1.595-2.561 1.793-4.034c.184-1.377.184-3.096.184-5.09V11.602l-.184-5.089c-.198-1.474-.646-2.889-1.793-4.034S40.966.883 39.492.685C38.115.5 36.396.5 34.402.5H11.754zm2.25 9a4.5 4.5 0 0 0-4.5 4.5 4.5 4.5 0 0 0 4.5 4.5 4.5 4.5 0 0 0 4.5-4.5 4.5 4.5 0 0 0-4.5-4.5zM9.504 23a2.25 2.25 0 0 1 2.25-2.25h4.5c3.233 0 6.214.522 7.9 3.348a2.25 2.25 0 0 1 .248 1.704 2.25 2.25 0 0 1-1.029 1.381 2.25 2.25 0 0 1-1.704.248 2.25 2.25 0 0 1-1.381-1.029c-.358-.601-1.017-1.152-4.034-1.152h-4.5A2.25 2.25 0 0 1 9.504 23zm13.5-13.5a2.25 2.25 0 0 0-2.25 2.25 2.25 2.25 0 0 0 2.25 2.25h11.25a2.25 2.25 0 0 0 2.25-2.25 2.25 2.25 0 0 0-2.25-2.25h-11.25zm0 9a2.25 2.25 0 0 1 2.25-2.25h9a2.25 2.25 0 0 1 2.25 2.25 2.25 2.25 0 0 1-2.25 2.25h-9a2.25 2.25 0 0 1-2.25-2.25zm6.75 4.5a2.25 2.25 0 0 0-2.25 2.25 2.25 2.25 0 0 0 2.25 2.25h4.5a2.25 2.25 0 0 0 2.25-2.25 2.25 2.25 0 0 0-2.25-2.25h-4.5z" fill="#0096eb"/></svg>