<svg xmlns="http://www.w3.org/2000/svg" width="20" height="20" fill="none" stroke="#8e433e" stroke-width="1.5" stroke-linejoin="round" xmlns:v="https://vecta.io/nano"><path d="M17 1c1.105 0 2 .883 2 1.973V6.34c0 1.089-.895 1.973-2 1.973h-3c-1.105 0-2-.883-2-1.973V2.973C12 1.883 12.895 1 14 1h3zM3 1c-1.105 0-2 .883-2 1.973V6.34c0 1.089.895 1.973 2 1.973h3c1.105 0 2-.883 2-1.973V2.973C8 1.883 7.105 1 6 1H3zm14 10.688c1.105 0 2 .883 2 1.973v3.367C19 18.117 18.105 19 17 19h-3c-1.105 0-2-.883-2-1.973V13.66c0-1.089.895-1.973 2-1.973h3zm-14 0c-1.105 0-2 .883-2 1.973v3.367C1 18.117 1.895 19 3 19h3c1.105 0 2-.883 2-1.973V13.66c0-1.089-.895-1.973-2-1.973H3z"/></svg>