<svg xmlns="http://www.w3.org/2000/svg" width="46" height="45" fill="none" xmlns:v="https://vecta.io/nano"><path fill-rule="evenodd" d="M23.004 9a2.25 2.25 0 0 1 2.25 2.25V31.5a2.25 2.25 0 0 1-2.25 2.25 2.25 2.25 0 0 1-2.25-2.25V11.25A2.25 2.25 0 0 1 23.004 9zm9 4.5a2.25 2.25 0 0 1 2.25 2.25V31.5a2.25 2.25 0 0 1-2.25 2.25 2.25 2.25 0 0 1-2.25-2.25V15.75a2.25 2.25 0 0 1 2.25-2.25zm-15.75 6.75a2.25 2.25 0 0 0-2.25-2.25 2.25 2.25 0 0 0-2.25 2.25V31.5a2.25 2.25 0 0 0 2.25 2.25 2.25 2.25 0 0 0 2.25-2.25V20.25zM12.316.873C15.241.223 18.783 0 23.004 0s7.765.225 10.688.873c2.947.655 5.398 1.773 7.281 3.659s3.004 4.334 3.658 7.281c.65 2.925.873 6.467.873 10.688s-.225 7.765-.873 10.688c-.655 2.947-1.773 5.398-3.658 7.281s-4.334 3.004-7.281 3.659c-2.923.65-6.466.873-10.687.873s-7.765-.225-10.688-.873c-2.947-.655-5.398-1.773-7.281-3.659s-3.004-4.334-3.658-7.281C.727 30.263.504 26.721.504 22.5s.225-7.765.873-10.687c.655-2.947 1.773-5.398 3.658-7.281S9.369 1.528 12.316.873z" fill="#12a632"/></svg>